M48
; DRILL file {KiCad 8.0.7} date 2025-01-24T00:56:13+0900
; FORMAT={-:-/ absolute / metric / decimal}
; #@! TF.CreationDate,2025-01-24T00:56:13+09:00
; #@! TF.GenerationSoftware,Kicad,Pcbnew,8.0.7
; #@! TF.FileFunction,Plated,1,2,PTH
FMAT,2
METRIC
; #@! TA.AperFunction,Plated,PTH,ViaDrill
T1C0.300
; #@! TA.AperFunction,Plated,PTH,ComponentDrill
T2C0.600
; #@! TA.AperFunction,Plated,PTH,ComponentDrill
T3C1.000
%
G90
G05
T1
X105.525Y-55.025
X106.375Y-55.075
X107.425Y-58.75
X107.45Y-61.725
X109.7Y-53.4
X109.7Y-59.86
X109.725Y-57.65
X109.74Y-58.66
X110.975Y-68.25
X111.7Y-63.25
X113.075Y-60.025
X115.725Y-52.05
X117.9Y-60.11
X118.45Y-57.125
X122.199Y-56.376
T3
X124.65Y-54.41
X124.65Y-56.95
X124.65Y-59.49
X124.65Y-62.03
X124.65Y-64.57
T2
X104.22Y-55.69G85X103.42Y-55.69
G05
X104.22Y-64.33G85X103.42Y-64.33
G05
X108.57Y-55.69G85X107.47Y-55.69
G05
X108.57Y-64.33G85X107.47Y-64.33
G05
M30
