%TF.GenerationSoftware,KiCad,Pcbnew,8.0.7*%
%TF.CreationDate,2025-01-24T00:56:13+09:00*%
%TF.ProjectId,ch340_silial_release,63683334-305f-4736-996c-69616c5f7265,rev?*%
%TF.SameCoordinates,Original*%
%TF.FileFunction,Drillmap*%
%TF.FilePolarity,Positive*%
%FSLAX45Y45*%
G04 Gerber Fmt 4.5, Leading zero omitted, Abs format (unit mm)*
G04 Created by KiCad (PCBNEW 8.0.7) date 2025-01-24 00:56:13*
%MOMM*%
%LPD*%
G01*
G04 APERTURE LIST*
%ADD10C,0.050000*%
%ADD11C,0.200000*%
G04 APERTURE END LIST*
D10*
X12677500Y-7000000D02*
X10177500Y-7000000D01*
X10177500Y-7000000D02*
X10177500Y-5001000D01*
X12677500Y-5000000D02*
X12677500Y-7000000D01*
X10177500Y-5000500D02*
X12677500Y-5000500D01*
D11*
X10435777Y-7313984D02*
X10435777Y-7113984D01*
X10435777Y-7113984D02*
X10483396Y-7113984D01*
X10483396Y-7113984D02*
X10511967Y-7123508D01*
X10511967Y-7123508D02*
X10531015Y-7142555D01*
X10531015Y-7142555D02*
X10540539Y-7161603D01*
X10540539Y-7161603D02*
X10550063Y-7199698D01*
X10550063Y-7199698D02*
X10550063Y-7228269D01*
X10550063Y-7228269D02*
X10540539Y-7266365D01*
X10540539Y-7266365D02*
X10531015Y-7285412D01*
X10531015Y-7285412D02*
X10511967Y-7304460D01*
X10511967Y-7304460D02*
X10483396Y-7313984D01*
X10483396Y-7313984D02*
X10435777Y-7313984D01*
X10635777Y-7313984D02*
X10635777Y-7180650D01*
X10635777Y-7218746D02*
X10645301Y-7199698D01*
X10645301Y-7199698D02*
X10654824Y-7190174D01*
X10654824Y-7190174D02*
X10673872Y-7180650D01*
X10673872Y-7180650D02*
X10692920Y-7180650D01*
X10759586Y-7313984D02*
X10759586Y-7180650D01*
X10759586Y-7113984D02*
X10750063Y-7123508D01*
X10750063Y-7123508D02*
X10759586Y-7133031D01*
X10759586Y-7133031D02*
X10769110Y-7123508D01*
X10769110Y-7123508D02*
X10759586Y-7113984D01*
X10759586Y-7113984D02*
X10759586Y-7133031D01*
X10883396Y-7313984D02*
X10864348Y-7304460D01*
X10864348Y-7304460D02*
X10854824Y-7285412D01*
X10854824Y-7285412D02*
X10854824Y-7113984D01*
X10988158Y-7313984D02*
X10969110Y-7304460D01*
X10969110Y-7304460D02*
X10959586Y-7285412D01*
X10959586Y-7285412D02*
X10959586Y-7113984D01*
X11216729Y-7313984D02*
X11216729Y-7113984D01*
X11216729Y-7113984D02*
X11283396Y-7256841D01*
X11283396Y-7256841D02*
X11350062Y-7113984D01*
X11350062Y-7113984D02*
X11350062Y-7313984D01*
X11531015Y-7313984D02*
X11531015Y-7209222D01*
X11531015Y-7209222D02*
X11521491Y-7190174D01*
X11521491Y-7190174D02*
X11502443Y-7180650D01*
X11502443Y-7180650D02*
X11464348Y-7180650D01*
X11464348Y-7180650D02*
X11445301Y-7190174D01*
X11531015Y-7304460D02*
X11511967Y-7313984D01*
X11511967Y-7313984D02*
X11464348Y-7313984D01*
X11464348Y-7313984D02*
X11445301Y-7304460D01*
X11445301Y-7304460D02*
X11435777Y-7285412D01*
X11435777Y-7285412D02*
X11435777Y-7266365D01*
X11435777Y-7266365D02*
X11445301Y-7247317D01*
X11445301Y-7247317D02*
X11464348Y-7237793D01*
X11464348Y-7237793D02*
X11511967Y-7237793D01*
X11511967Y-7237793D02*
X11531015Y-7228269D01*
X11626253Y-7180650D02*
X11626253Y-7380650D01*
X11626253Y-7190174D02*
X11645301Y-7180650D01*
X11645301Y-7180650D02*
X11683396Y-7180650D01*
X11683396Y-7180650D02*
X11702443Y-7190174D01*
X11702443Y-7190174D02*
X11711967Y-7199698D01*
X11711967Y-7199698D02*
X11721491Y-7218746D01*
X11721491Y-7218746D02*
X11721491Y-7275888D01*
X11721491Y-7275888D02*
X11711967Y-7294936D01*
X11711967Y-7294936D02*
X11702443Y-7304460D01*
X11702443Y-7304460D02*
X11683396Y-7313984D01*
X11683396Y-7313984D02*
X11645301Y-7313984D01*
X11645301Y-7313984D02*
X11626253Y-7304460D01*
X11807205Y-7294936D02*
X11816729Y-7304460D01*
X11816729Y-7304460D02*
X11807205Y-7313984D01*
X11807205Y-7313984D02*
X11797682Y-7304460D01*
X11797682Y-7304460D02*
X11807205Y-7294936D01*
X11807205Y-7294936D02*
X11807205Y-7313984D01*
X11807205Y-7190174D02*
X11816729Y-7199698D01*
X11816729Y-7199698D02*
X11807205Y-7209222D01*
X11807205Y-7209222D02*
X11797682Y-7199698D01*
X11797682Y-7199698D02*
X11807205Y-7190174D01*
X11807205Y-7190174D02*
X11807205Y-7209222D01*
M02*
