G04 #@! TF.GenerationSoftware,KiCad,Pcbnew,8.0.7*
G04 #@! TF.CreationDate,2025-01-24T00:56:05+09:00*
G04 #@! TF.ProjectId,ch340_silial_release,63683334-305f-4736-996c-69616c5f7265,rev?*
G04 #@! TF.SameCoordinates,Original*
G04 #@! TF.FileFunction,Legend,Bot*
G04 #@! TF.FilePolarity,Positive*
%FSLAX46Y46*%
G04 Gerber Fmt 4.6, Leading zero omitted, Abs format (unit mm)*
G04 Created by KiCad (PCBNEW 8.0.7) date 2025-01-24 00:56:05*
%MOMM*%
%LPD*%
G01*
G04 APERTURE LIST*
%ADD10C,0.300000*%
%ADD11O,2.100000X1.000000*%
%ADD12O,1.800000X1.000000*%
%ADD13R,1.700000X1.700000*%
%ADD14O,1.700000X1.700000*%
G04 APERTURE END LIST*
D10*
X121886653Y-62703328D02*
X122386653Y-61989042D01*
X122743796Y-62703328D02*
X122743796Y-61203328D01*
X122743796Y-61203328D02*
X122172367Y-61203328D01*
X122172367Y-61203328D02*
X122029510Y-61274757D01*
X122029510Y-61274757D02*
X121958081Y-61346185D01*
X121958081Y-61346185D02*
X121886653Y-61489042D01*
X121886653Y-61489042D02*
X121886653Y-61703328D01*
X121886653Y-61703328D02*
X121958081Y-61846185D01*
X121958081Y-61846185D02*
X122029510Y-61917614D01*
X122029510Y-61917614D02*
X122172367Y-61989042D01*
X122172367Y-61989042D02*
X122743796Y-61989042D01*
X121386653Y-61203328D02*
X120386653Y-62703328D01*
X120386653Y-61203328D02*
X121386653Y-62703328D01*
X121950939Y-56224757D02*
X122093797Y-56153328D01*
X122093797Y-56153328D02*
X122308082Y-56153328D01*
X122308082Y-56153328D02*
X122522368Y-56224757D01*
X122522368Y-56224757D02*
X122665225Y-56367614D01*
X122665225Y-56367614D02*
X122736654Y-56510471D01*
X122736654Y-56510471D02*
X122808082Y-56796185D01*
X122808082Y-56796185D02*
X122808082Y-57010471D01*
X122808082Y-57010471D02*
X122736654Y-57296185D01*
X122736654Y-57296185D02*
X122665225Y-57439042D01*
X122665225Y-57439042D02*
X122522368Y-57581900D01*
X122522368Y-57581900D02*
X122308082Y-57653328D01*
X122308082Y-57653328D02*
X122165225Y-57653328D01*
X122165225Y-57653328D02*
X121950939Y-57581900D01*
X121950939Y-57581900D02*
X121879511Y-57510471D01*
X121879511Y-57510471D02*
X121879511Y-57010471D01*
X121879511Y-57010471D02*
X122165225Y-57010471D01*
X121236654Y-57653328D02*
X121236654Y-56153328D01*
X121236654Y-56153328D02*
X120379511Y-57653328D01*
X120379511Y-57653328D02*
X120379511Y-56153328D01*
X119665225Y-57653328D02*
X119665225Y-56153328D01*
X119665225Y-56153328D02*
X119308082Y-56153328D01*
X119308082Y-56153328D02*
X119093796Y-56224757D01*
X119093796Y-56224757D02*
X118950939Y-56367614D01*
X118950939Y-56367614D02*
X118879510Y-56510471D01*
X118879510Y-56510471D02*
X118808082Y-56796185D01*
X118808082Y-56796185D02*
X118808082Y-57010471D01*
X118808082Y-57010471D02*
X118879510Y-57296185D01*
X118879510Y-57296185D02*
X118950939Y-57439042D01*
X118950939Y-57439042D02*
X119093796Y-57581900D01*
X119093796Y-57581900D02*
X119308082Y-57653328D01*
X119308082Y-57653328D02*
X119665225Y-57653328D01*
X121929510Y-65278328D02*
X122429510Y-64564042D01*
X122786653Y-65278328D02*
X122786653Y-63778328D01*
X122786653Y-63778328D02*
X122215224Y-63778328D01*
X122215224Y-63778328D02*
X122072367Y-63849757D01*
X122072367Y-63849757D02*
X122000938Y-63921185D01*
X122000938Y-63921185D02*
X121929510Y-64064042D01*
X121929510Y-64064042D02*
X121929510Y-64278328D01*
X121929510Y-64278328D02*
X122000938Y-64421185D01*
X122000938Y-64421185D02*
X122072367Y-64492614D01*
X122072367Y-64492614D02*
X122215224Y-64564042D01*
X122215224Y-64564042D02*
X122786653Y-64564042D01*
X121500938Y-63778328D02*
X120643796Y-63778328D01*
X121072367Y-65278328D02*
X121072367Y-63778328D01*
X120215224Y-65206900D02*
X120000939Y-65278328D01*
X120000939Y-65278328D02*
X119643796Y-65278328D01*
X119643796Y-65278328D02*
X119500939Y-65206900D01*
X119500939Y-65206900D02*
X119429510Y-65135471D01*
X119429510Y-65135471D02*
X119358081Y-64992614D01*
X119358081Y-64992614D02*
X119358081Y-64849757D01*
X119358081Y-64849757D02*
X119429510Y-64706900D01*
X119429510Y-64706900D02*
X119500939Y-64635471D01*
X119500939Y-64635471D02*
X119643796Y-64564042D01*
X119643796Y-64564042D02*
X119929510Y-64492614D01*
X119929510Y-64492614D02*
X120072367Y-64421185D01*
X120072367Y-64421185D02*
X120143796Y-64349757D01*
X120143796Y-64349757D02*
X120215224Y-64206900D01*
X120215224Y-64206900D02*
X120215224Y-64064042D01*
X120215224Y-64064042D02*
X120143796Y-63921185D01*
X120143796Y-63921185D02*
X120072367Y-63849757D01*
X120072367Y-63849757D02*
X119929510Y-63778328D01*
X119929510Y-63778328D02*
X119572367Y-63778328D01*
X119572367Y-63778328D02*
X119358081Y-63849757D01*
X122015224Y-53753328D02*
X122729510Y-53753328D01*
X122729510Y-53753328D02*
X122800938Y-54467614D01*
X122800938Y-54467614D02*
X122729510Y-54396185D01*
X122729510Y-54396185D02*
X122586653Y-54324757D01*
X122586653Y-54324757D02*
X122229510Y-54324757D01*
X122229510Y-54324757D02*
X122086653Y-54396185D01*
X122086653Y-54396185D02*
X122015224Y-54467614D01*
X122015224Y-54467614D02*
X121943795Y-54610471D01*
X121943795Y-54610471D02*
X121943795Y-54967614D01*
X121943795Y-54967614D02*
X122015224Y-55110471D01*
X122015224Y-55110471D02*
X122086653Y-55181900D01*
X122086653Y-55181900D02*
X122229510Y-55253328D01*
X122229510Y-55253328D02*
X122586653Y-55253328D01*
X122586653Y-55253328D02*
X122729510Y-55181900D01*
X122729510Y-55181900D02*
X122800938Y-55110471D01*
X121515224Y-53753328D02*
X121015224Y-55253328D01*
X121015224Y-55253328D02*
X120515224Y-53753328D01*
X122675938Y-58703328D02*
X121818796Y-58703328D01*
X122247367Y-60203328D02*
X122247367Y-58703328D01*
X121461653Y-58703328D02*
X120461653Y-60203328D01*
X120461653Y-58703328D02*
X121461653Y-60203328D01*
%LPC*%
D11*
X108020000Y-55690000D03*
D12*
X103820000Y-55690000D03*
D11*
X108020000Y-64330000D03*
D12*
X103820000Y-64330000D03*
D13*
X124650000Y-54410000D03*
D14*
X124650000Y-56950000D03*
X124650000Y-59490000D03*
X124650000Y-62030000D03*
X124650000Y-64570000D03*
%LPD*%
M02*
